<svg xmlns="http://www.w3.org/2000/svg" width="464.32" height="286.78" viewBox="0 0 464.32 286.78"><defs><style>.cls-1{fill:#fff;}</style></defs><title>Asset 2</title><g id="Layer_2" data-name="Layer 2"><g id="Layer_1-2" data-name="Layer 1"><path class="cls-1" d="M192.6,0C195.73,1.38,199,2.54,202,4.18c12.6,6.89,18.69,22.44,14.44,36.48-4.06,13.41-17.87,23.09-31.53,22.11-15.24-1.1-27.34-12-29.4-26.53-2.24-15.79,6-29.32,21.19-34.74,1-.36,2.44-.06,2.92-1.5Z"/><path class="cls-1" d="M307.87,217.51V178.69a5.18,5.18,0,0,1,1.41-.59c11.73-.84,16.07-4.44,17.94-16a109,109,0,0,0,0-34.84c-2.16-13.37-10.08-18.37-23.29-15.38a28.6,28.6,0,0,0-9.12,3.6V286.55H239.06V74h37l5.86,8.59c6.92-3.91,13.67-7.75,21.15-10.07a79.16,79.16,0,0,1,39-2.19c16.75,3.24,28.69,13,34,29,10.1,30.43,10.27,61.28-.41,91.6-6.31,17.91-20.4,27-39,29C324.3,221.28,314.41,220.28,307.87,217.51Z"/><path class="cls-1" d="M55.49,286.78H0V74H36.81l6,8.58c2.23-1.27,4.33-2.5,6.45-3.69C66,69.48,84,66.8,102.83,70.36,122,74,133.73,86.23,138.74,104.55c7.36,26.88,7.67,54.1-.21,80.87-8.18,27.77-28.46,35.67-53.11,35-5.59-.15-11.28-.41-16.63-2.78V178.78c.49-.29.75-.57,1-.59,12.16-.88,16.1-4.13,18.21-16.34A105.3,105.3,0,0,0,88.16,128C86,113.57,77.71,108.46,63.57,112.12a21.33,21.33,0,0,0-8.07,3.63Z"/><path class="cls-1" d="M397.6,2.39h55.09c1.5,1.78.79,3.86.8,5.76q.07,75.75,0,151.5c0,11.23,0,11.23,10.79,14.53v42.41c-18.21,3.39-36.27,4.67-52.6-6.66-10.83-7.51-14.05-19-14.08-31.54-.09-34.5,0-69,0-103.5q0-33.25,0-66.5C397.6,6.57,397.6,4.76,397.6,2.39Z"/><path class="cls-1" d="M225.32,174.3v42.27c-17,3.24-33.68,4.3-49.46-4.43-11-6.08-16.8-16.18-17-28.25-.57-36.12-.27-72.25-.28-108.38a5.93,5.93,0,0,1,.54-1.58h54.59c1.18,1.94.7,3.82.71,5.6q.05,39.71,0,79.42C214.45,170.54,214.45,170.54,225.32,174.3Z"/></g></g></svg>